<svg id="28" xmlns="http://www.w3.org/2000/svg" viewBox="0 0 70 80">
  <path fill="#ffbf00" d="M70.833 108.833v30.678c0 20.582 10.483 39.72 35 49.322 24.517-9.602 35-28.74 35-49.322v-30.678z" color="#000" overflow="visible" style="isolation:auto;mix-blend-mode:normal;solid-color:#000;solid-opacity:1" transform="translate(-70.833 -108.833)"/>
  <path fill="#4b5320" d="M73.304 111.304v28.207c0 19.479 9.522 37.21 32.53 46.602 23.007-9.392 32.529-27.123 32.529-46.602v-28.207Z" color="#000" overflow="visible" style="isolation:auto;mix-blend-mode:normal;solid-color:#000;solid-opacity:1" transform="translate(-70.833 -108.833)"/>
  <path fill="#ffbf00" fill-rule="evenodd" d="M26.002 8.155V26H8.155v1.963h19.809V8.154zm16.035 0v19.809h19.808V26H44V8.155zM8.155 42.037v1.962h17.847v17.846h1.962V42.037zm33.882 0v19.808h1.962V44h17.846v-1.962z"/>
  <path fill-rule="evenodd" d="M27.963 8.155v19.808H8.155v14.074h19.808v19.808h14.074V42.037h19.808V27.963H42.037V8.155z"/>
  <path fill="#ffbf00" d="m35 51.242-5.205-11.037L18.758 35l11.037-5.205L35 18.758l5.205 11.037L51.242 35l-11.037 5.205z"/>
  <path fill="#0080fe" fill-rule="evenodd" d="M41.177 35A6.177 6.177 0 0 1 35 41.177 6.177 6.177 0 0 1 28.823 35 6.177 6.177 0 0 1 35 28.823 6.177 6.177 0 0 1 41.177 35z"/>
  <path fill="#ffbf00" fill-rule="evenodd" d="m35 29.964-.046.051c-.748.816-1.1 1.758-1.012 2.84.06.717.08 1.45.12 2.179l.05 1.944H32.7c.14-1.039.28-2.202.138-3.233-.146-1.053-.59-1.973-1.613-2.44l-.09-.04v7.448h2.899c.195.565.503 1.133.917 1.628l.02.023h.059l.018-.023a5.232 5.232 0 0 0 .919-1.628h2.896v-7.448l-.09.04c-1.023.467-1.466 1.387-1.612 2.44-.143 1.031 0 2.194.14 3.233h-1.415l.051-1.944v-.004c.04-.728.06-1.46.12-2.177.089-1.082-.263-2.023-1.01-2.839z"/>
</svg>
