<svg id="30" xmlns="http://www.w3.org/2000/svg" viewBox="0 20 70 80">
  <path fill="#fc0" d="M17.16 118.833v30.678c0 20.582 10.484 39.72 35 49.322 24.518-9.602 35-28.74 35-49.322v-30.678z" color="#000" overflow="visible" style="isolation:auto;mix-blend-mode:normal;solid-color:#000;solid-opacity:1" transform="translate(-17.16 -98.833)"/>
  <path fill="#c11010" d="M19.632 121.304v28.207c0 19.479 9.522 37.21 32.529 46.602 23.007-9.392 32.53-27.123 32.53-46.602v-28.207z" color="#000" overflow="visible" style="isolation:auto;mix-blend-mode:normal;solid-color:#000;solid-opacity:1" transform="translate(-17.16 -98.833)"/>
  <path d="M52.161 121.304v74.809c23.008-9.392 32.53-27.123 32.53-46.602v-28.207z" color="#000" overflow="visible" style="isolation:auto;mix-blend-mode:normal;solid-color:#000;solid-opacity:1" transform="translate(-17.16 -98.833)"/>
  <path fill="#fff" fill-rule="evenodd" d="m41.048 57.484-1.682 7.954 7.73 2.52-7.73 2.52 1.682 7.954L35 72.998l-6.048 5.434 1.682-7.954-7.73-2.52 7.73-2.52-1.682-7.954L35 62.918z"/>
  <path fill="#fff" d="M35 28.903c-13.735 0-19.512 9.269-19.512 9.269l6.022-.881 1.263 5.58s3.641-7.848 10.54-8.994v15.456c-17.683.922-20.195 16.256-20.195 16.256l4.087-2.208 2.004 4.132S21.377 53.477 35 53.477c13.623 0 15.791 14.036 15.791 14.036l2.004-4.132 4.087 2.208S54.37 50.255 36.687 49.333V33.877c6.9 1.146 10.54 8.994 10.54 8.994l1.264-5.58 6.021.88S48.735 28.904 35 28.904z" paint-order="stroke fill markers"/>
  <path fill="#fff" d="M14.26 68.808a21.064 24.307 0 0 0 20.757 20.173A21.064 24.307 0 0 0 55.74 68.897a23.872 25.634 0 0 1-20.723 12.948A23.872 25.634 0 0 1 14.26 68.808z"/>
</svg>
