<svg id="45" xmlns="http://www.w3.org/2000/svg" viewBox="0 0 950 1070">
  <path fill="#f7c800" d="M460.996 1065.017c-40.02-10.804-90.607-32.005-132.831-55.669C151.3 910.225 36.345 741.427 8.555 540.034c-3.412-24.725-3.538-34.924-3.549-286.75l-.01-251.75h940.008l-.09 253.25c-.073 205.87-.344 255.775-1.451 266.75-7.636 75.72-28.751 148.41-63.47 218.5-49.132 99.185-120.453 179.675-215.498 243.2-46.146 30.843-103.6 58.918-153.9 75.204-14.583 4.722-34.374 10.19-36.28 10.025-.45-.04-6.444-1.59-13.32-3.446z"/>
  <path d="M486.073 1047.598c66.447-18.712 138.473-55.06 198.762-100.303 77.298-58.008 136.314-128.715 179.199-214.7 22.624-45.363 39.878-94.223 50.871-144.061 3.6-16.322 8.645-45.702 9.616-56 .39-4.125.84-8.21 1-9.076 2.199-11.83 2.574-56.496 2.286-271.924l-.31-232.5h-905l-.295 235.5c-.2 159.683.05 240.786.776 251.919 5.3 81.235 31.735 170.59 72.064 243.58a5747.6 5747.6 0 0 1 10.184 18.5c1.651 3.026 3.287 5.727 3.636 6.004.349.276 1.718 2.526 3.043 5 3.101 5.79 20.74 32.285 27.958 41.997 29.52 39.714 70.19 82.352 103.198 108.188 1.89 1.48 8.672 6.88 15.072 12 55.827 44.671 133.103 84.74 202.363 104.928 7.15 2.084 13.485 3.81 14.077 3.836.592.026 5.767-1.273 11.5-2.888z" paint-order="stroke fill markers"/>
  <path fill="#c91518" d="M818.254 809.486c3.527-5.068 7.178-10.03 10.559-15.226a609.215 609.215 0 0 0 18.378-30.133 635.14 635.14 0 0 0 16.842-31.533 614.605 614.605 0 0 0 15.947-34.637 627.129 627.129 0 0 0 13.852-35.715A630.26 630.26 0 0 0 905.5 625.69a624.11 624.11 0 0 0 9.404-37.156c1.8-8.16 3.963-19.585 5.795-30.258 1.833-10.672 3.337-20.593 3.822-25.742.39-4.125.84-8.207 1-9.074.55-2.958.985-7.968 1.325-17.186.34-9.217.583-22.64.75-42.427.332-39.574.355-104.599.21-212.313l-.31-232.5H22.539l.457.455 795.133 789.99.125.008z"/>
  <path fill="#f7c800" d="M885.36 1215.466c17.49-9.418 23.434-13.22 37.913-24.263l9.773-7.453-3.534-6.43c-1.944-3.537-6.717-11.468-10.606-17.625-8.332-13.192-29.49-55.679-36.946-74.195-9.139-22.692-15.448-42.705-18.376-58.29-1.542-8.208-1.619-8.348-7.716-14-10.16-9.418-9.171-9.5-12.823 1.065-9.242 26.743-28.755 58.29-48.745 78.808l-6.414 6.582 8.197 11.418c15.655 21.806 37.711 56.08 67.994 105.658 2.433 3.983 4.65 7.246 4.927 7.25.277 0 7.637-3.831 16.355-8.525zm-224.46-68c51.993-7.979 99.322-34.554 132.574-74.438 34.418-41.284 52.9-98.53 48.676-150.778-4.287-53.043-25.774-100.008-62.4-136.391-17.383-17.267-33.696-28.828-56.25-39.862-29.241-14.307-54.443-20.59-87-21.693-56.841-1.925-111.017 18.537-152.79 57.708-35.638 33.42-58.984 79.565-65.258 128.988-2.417 19.04-1.615 45.32 1.96 64.24 9.055 47.926 33.808 91.19 70.088 122.5 33.467 28.884 74.703 46.627 119 51.205 12.09 1.249 38.595.486 51.4-1.479zm-38.126-30.947c-1.499-1.509-3.017-4.299-3.374-6.2-.59-3.146 11.136-112.726 12.26-114.569.252-.413 1.894-.76 3.649-.774 1.755-.013 4.806-.4 6.779-.858l3.588-.834 22.327 51.108c24.638 56.4 25.3 58.46 20.37 63.386-4.983 4.98-27.615 9.93-49.873 10.91l-13 .573zM581 1112.498c-20.244-5.61-44.601-17.133-46.906-22.19-1.542-3.385-1.36-6.892.546-10.58 1.482-2.864 62.897-86.395 65.841-89.55 1.018-1.09 2.395-.916 7.876.997 3.654 1.275 6.643 2.77 6.644 3.322.004 3.985-12.208 108.78-13.014 111.68-1.244 4.468-6.158 8.85-9.814 8.75-1.47-.04-6.498-1.133-11.173-2.429zm128.607-18.593c-1.465-1.151-3.518-3.77-4.562-5.817-3.992-7.824-44.119-100.36-43.84-101.096.163-.426 2.66-2.635 5.55-4.91l5.255-4.136 43.745 32.12c24.06 17.665 45.159 33.67 46.886 35.567 6.39 7.015 5.12 11.562-6.247 22.376-9.282 8.83-16.675 14.619-28.547 22.354-9.697 6.317-13.72 7.098-18.24 3.542zm-204.206-23.983c-8.687-6.904-25.077-27.153-32.004-39.54-4.439-7.937-4.172-11.88 1.086-16.076 1.868-1.49 26.25-12.635 54.184-24.766l50.79-22.058 4.348 5.339c2.391 2.936 4.122 5.927 3.846 6.646-.276.72-15.422 21.39-33.658 45.937-21.182 28.512-34.192 45.165-36.025 46.112-4.466 2.31-8.259 1.829-12.567-1.595zm266.976-38.714c-4.93-2.697-90.253-65.607-90.318-66.594-.033-.487.953-3.518 2.191-6.735 1.958-5.09 2.595-5.852 4.906-5.864 1.46-.008 26.628 2.702 55.928 6.023 35.786 4.055 54.377 6.561 56.638 7.634 4.523 2.147 6.67 6.461 5.837 11.729-1.978 12.504-16.5 47.632-21.942 53.073-3.03 3.03-8.489 3.333-13.24.734zm9.803-22.958c4.126-8.912 11.524-29.952 10.748-30.566-.236-.186-17.753-2.235-38.928-4.554-21.175-2.318-39.625-4.45-41-4.738-2.257-.473-2.351-.372-.966 1.04 3.041 3.101 63.497 47.426 64.78 47.496.724.04 3.138-3.865 5.366-8.678zM461.5 997.1c-3.706-1.601-5.414-4.633-7.96-14.137-2.808-10.473-5.119-25.712-5.985-39.463-.492-7.806-.307-9.424 1.391-12.196 3.851-6.283 3.81-6.284 64.251.557 29.867 3.38 55.025 6.145 55.906 6.143 1.213-.003 1.892 1.737 2.782 7.13.648 3.925 1.043 7.272.877 7.438-1.441 1.44-102.75 44.537-105.566 44.907-2.033.267-4.596.096-5.696-.379zm158.01-11.21c-13.478-2.748-27.772-13.694-33.914-25.971-4.437-8.869-5.947-16.34-5.332-26.379.648-10.58 3.065-17.39 9.198-25.92 8.682-12.074 21.959-19.369 37.038-20.348 14.283-.928 26.518 3.322 36.914 12.824 32.586 29.781 13.117 84.284-30.87 86.421-4.424.215-10.29-.067-13.034-.626zm24.905-16.223c7.666-3.509 14-9.732 17.835-17.523 2.909-5.909 3.247-7.497 3.22-15.123-.026-7.162-.477-9.495-2.825-14.631-3.343-7.314-10.058-14.193-17.645-18.075-4.89-2.503-6.553-2.815-15-2.815-8.206 0-10.276.364-15.197 2.67-7.266 3.406-14.227 10.367-17.633 17.634-2.306 4.92-2.67 6.99-2.67 15.196 0 8.37.331 10.175 2.788 15.178 3.99 8.125 12.984 16.183 20.989 18.803 8.266 2.706 18.48 2.192 26.138-1.314zm-23.667-16.736c-16.187-8.545-9.83-34.019 8.556-34.284 16.229-.235 24.895 18.947 13.882 30.726-5.43 5.807-15.233 7.362-22.438 3.558zM632.8 939.8c1.86-1.86 1.418-5.613-.8-6.8-3.845-2.058-8.03 2.206-5.961 6.072 1.154 2.157 4.926 2.563 6.761.728zm110.2 1.677c-29.975-3.47-54.612-6.348-54.75-6.394-.138-.045-.26-1.545-.274-3.333-.013-1.788-.408-4.904-.878-6.927l-.854-3.676 51.128-22.225c56.388-24.51 58.515-25.191 63.406-20.295 4.922 4.926 9.901 27.489 10.896 49.373.535 11.772.442 12.658-1.598 15.216-2.022 2.533-7.638 4.903-11.076 4.672-.825-.055-26.025-2.94-56-6.41zm54.048-23.475c-1.717-14.617-4.918-27.266-6.725-26.572-.813.311-8.39 3.532-16.84 7.156l-15.36 6.59 15.017 13.662c14.005 12.74 15.333 13.696 19.69 14.162 4.578.49 4.677.441 5.002-2.498.182-1.648-.17-7.273-.784-12.5zm-40.142 5.152C748.178 915.159 744.358 912 743.422 912c-1.632 0-27.29 11.465-26.792 11.971.59.598 45.648 5.803 46.276 5.346.224-.163-2.476-2.936-6-6.163zm-241.406-7.23c-28.05-3.22-52.742-6.354-54.872-6.966-2.13-.611-5.001-2.24-6.381-3.62-2.256-2.256-2.455-3.082-1.97-8.174 1.218-12.779 17.633-52.44 22.863-55.24 3.128-1.673 9.6-1.322 12.692.69 1.936 1.26 87.71 64.107 89.988 65.935.175.141-.57 2.438-1.655 5.104-1.086 2.666-2.228 5.634-2.538 6.597-.752 2.332 1.06 2.467-58.127-4.327zm159.734-15.507-4.265-5.435 33.497-45.158c18.423-24.838 34.742-45.98 36.265-46.985 1.531-1.01 4.586-1.829 6.835-1.832 3.813-.006 4.626.567 13.099 9.243C775.903 825.854 789 844.94 789 851.54c0 7.107-2.553 8.54-58 32.568-27.775 12.035-50.725 21.852-51 21.814-.275-.039-2.42-2.516-4.766-5.505zm31.378-21.22c1.436-.803 1.347-1.113-.74-2.579-2.301-1.616-2.453-1.568-5.095 1.608-1.498 1.8-2.735 3.618-2.75 4.037-.026.724 5.058-1.092 8.585-3.066zm38.064-16.393 21.176-9.203-11.92-12.672c-6.555-6.97-12.488-13.146-13.185-13.724-.966-.802-4.544 3.362-15.056 17.525l-13.788 18.576 4.799 4.302c2.639 2.366 5.248 4.324 5.798 4.35.55.027 10.53-4.093 22.176-9.154zM543 862.865c-24.475-18.032-45.51-33.95-46.743-35.373-4.776-5.51-4.199-10.43 2.015-17.171 9.062-9.831 34.834-29.458 42.622-32.459 3.042-1.172 8.08.417 10.927 3.447 1.519 1.617 34.764 75.674 46.805 104.263.248.59-2.153 3.099-5.337 5.576l-5.789 4.503Zm29.58-1.615C560.042 832.196 553.64 818 553.074 818c-.797 0-18.178 19.174-18.41 20.309-.16.787 39.13 30.447 40.548 30.61.392.044-.793-3.407-2.632-7.669zm77.858 21.023c-5.484-2.244-6.03-2.732-5.724-5.126.185-1.456 3.038-26.656 6.34-56 3.91-34.76 6.522-54.36 7.495-56.241 2.402-4.645 5.738-6.27 11.48-5.589 11.656 1.38 45.27 14.856 52.743 21.145 4.058 3.415 4.853 7.309 2.544 12.46-2.247 5.013-66.434 91.993-67.816 91.899-.55-.038-3.728-1.185-7.062-2.548zm17.23-33.58 2.684-3.808-3.548-3.547-3.547-3.548-.658 5.855c-.362 3.22-.895 7.655-1.184 9.855l-.527 4 2.047-2.5c1.127-1.375 3.256-4.213 4.732-6.307zm26.177-35.26 14.345-19.496-3.699-4.513c-2.034-2.483-4.664-5.125-5.845-5.872-2.944-1.863-20.34-8.232-24.688-9.04l-3.542-.657-2.674 23.323-2.674 23.322 6.716 6.204c3.694 3.412 6.941 6.208 7.216 6.213.275.005 6.955-8.762 14.845-19.485zm-80.242 65.733c-2.003-3.24-43.811-100.15-44.449-103.029-1.07-4.833.335-9.756 3.348-11.73 6.133-4.019 34.08-9.216 51.265-9.535 9.517-.176 10.447-.02 12.751 2.145 4.79 4.5 4.768 5.337-1.626 62.786-3.287 29.533-6.18 54.663-6.427 55.843-.371 1.766-1.575 2.342-6.79 3.25-7.591 1.322-7.426 1.317-8.072.27zM619.976 827c1.164-11.275 2.336-21.649 2.606-23.052.43-2.243-1.353-4.228-14.703-16.36l-15.194-13.809-3.244 3.86c-1.785 2.124-3.138 4.086-3.007 4.361.13.275 6.944 15.935 15.14 34.8 10.418 23.976 15.111 33.757 15.595 32.5.38-.99 1.644-11.025 2.807-22.3zm5.382-47.75c.341-2.063.626-5.325.633-7.25l.013-3.5-6.752.296c-10.461.46-10.5.566-2.721 7.71 3.833 3.521 7.248 6.422 7.588 6.448.34.025.898-1.641 1.24-3.704zm268.354 256.79c15.329-14.959 17.925-21.811 12.582-33.221-2.452-5.237-6.86-10.384-25.752-30.069-12.536-13.063-23.12-23.75-23.518-23.75-.398 0-1.007 3.938-1.353 8.75-.345 4.813-1.53 13.7-2.634 19.75-1.104 6.05-2.013 11.294-2.022 11.652-.008.36 5.547 5.67 12.345 11.801l12.36 11.149.598 6.397c.62 6.648 5.646 27.501 6.627 27.501.308 0 5.153-4.482 10.767-9.96zM539 728.891c12.99-5.611 27.66-10.423 40.861-13.403 11.912-2.69 33.314-5.488 41.966-5.488 2.937 0 5.19-.4 5.006-.887-.183-.488-32.283-34.125-71.333-74.748C413.908 487.069 406.02 479 403.6 479c-3.288 0-46.6 40.26-46.6 43.317 0 1.427 10.542 15.016 29.632 38.199 16.298 19.791 54.792 66.697 85.543 104.234 30.751 37.538 56.23 68.249 56.618 68.248.389-.001 4.982-1.85 10.207-4.107zM338.8 514.75c4.3-2.351 33.419-28.114 48.319-42.75 12.38-12.16 14.789-20.203 8.345-27.86-3.743-4.449-9.636-6.468-14.564-4.992-7.355 2.204-58.36 49.98-62.363 58.415-2.75 5.797-1.652 12.027 2.85 16.153 3.022 2.77 4.345 3.284 8.441 3.284 3.152 0 6.303-.79 8.972-2.25z" style="font-variation-settings:normal;-inkscape-stroke:none" transform="translate(-276.004 -242.466)"/>
  <path fill="#f7c800" d="M689.136 592.386c-6.549-1.884-23.963-14.823-24.08-17.89-.136-3.518 14.34-9.874 22.631-9.938 8.272-.063 1.781-4.899-7.733-5.762-4.777-.433-6.603-.091-11.088 2.076-2.954 1.427-6.553 3.557-8 4.734l-2.63 2.14-6.107-3.357c-3.359-1.845-5.968-3.79-5.798-4.32.516-1.612 13.764-8.417 20.52-10.539 8.359-2.625 9.953-2.54 18.804 1.004 10.408 4.167 16.276 4.072 25.116-.41 11.35-5.753 18.622-13.32 22.627-23.543 2.21-5.644 1.457-9.999-2.511-14.52-3.408-3.88-9.527-6.461-21.39-9.022-4.4-.95-8.998-2.352-10.216-3.116-3.624-2.273-5.285-1.757-5.285 1.643 0 3.092-2.412 9.968-3.497 9.968-.33 0-1.733-1.238-3.119-2.75-1.386-1.513-2.72-2.282-2.966-1.709-2.064 4.821-4.6 8.087-7.48 9.631-6.742 3.616-19.401 1.288-23.305-4.287-1.84-2.626-2.148-4.321-.613-3.373.561.347 3.556.63 6.656.63 6.46 0 9.824-2.382 10.888-7.707.524-2.622-.044-3.835-3.925-8.381-2.496-2.924-4.82-6.602-5.165-8.174-.345-1.571-1-3.087-1.454-3.368-.454-.28-3.232.61-6.173 1.979-2.94 1.37-6.472 2.491-7.847 2.493-4.745.008-10.2-2.141-13.795-5.435l-3.607-3.306 3.97-.67c2.184-.37 5.737-1.662 7.896-2.873 8.95-5.02 10.277-14.277 4.148-28.944-8.261-19.77-8.55-32.58-1.245-55.354 5.508-17.172 6.58-26.157 4.221-35.365-2.12-8.278-5.784-13.267-9.432-12.845-3.956.458-3.826 3.23.776 16.61 3.896 11.328 4.849 17.684 3.438 22.948-.332 1.237-.888 2.244-1.236 2.237-.349-.007-1.909-3.16-3.467-7.01-4.106-10.143-9.815-18.15-15.92-22.33-7.328-5.017-14.04-6.548-26.247-5.987-11.045.507-31.855-.977-37.84-2.7l-3.84-1.104 6.102-6.353c6.96-7.249 11.054-15.083 11.068-21.182.017-7.232-5.255-10.154-6.445-3.571-1.254 6.94-8.365 19.66-18.52 33.128-11.661 15.467-17.093 24.4-21.658 35.619-4.629 11.376-5.383 15.426-3.747 20.125 2.642 7.588 1.188 9.378-7.62 9.378-6.14 0-8.195.993-13.649 6.602-2.62 2.694-5.664 4.674-8.261 5.374-8.01 2.156-14.795-2.994-27.47-20.852-7.599-10.704-7.562-11.213.988-13.699 5.03-1.462 5.777-1.432 12.586.494 11.67 3.303 11.63-.387-.063-5.96-6.65-3.169-12.63-3.52-19.386-1.137l-5.755 2.03-4.495-5.518c-2.472-3.035-4.495-5.857-4.495-6.272 0-1.228 15-5.255 21.632-5.807 5.172-.43 7.03-.099 11.87 2.117 3.157 1.445 6.145 2.628 6.641 2.628 1.327 0 6.725-8.876 7.884-12.966 1.558-5.492 3.961-32.701 4.089-46.285.112-11.969-.623-16.89-3.805-25.48-1.443-3.893-1.433-4.434.125-6.811.93-1.42 2.205-2.411 2.832-2.202.627.209 1.685 3.336 2.352 6.95 1.957 10.6 5.784 16.794 10.379 16.794 3.878 0 14.136-7.268 21.53-15.255l6.37-6.88 2.461 4.818c3.024 5.917 7.87 10.686 13.063 12.852 4.201 1.752 16.258 2.184 17.804.638.532-.532-.148-2.442-1.664-4.676-1.41-2.077-2.561-4.951-2.56-6.387.006-3.453 3.032-8.27 6.285-10.003 2.525-1.345 2.794-1.203 7.913 4.182 8.4 8.838 12.3 8.846 21.807.043l6.108-5.655-.217 6.716c-.305 9.418.71 10.295 10.12 8.74 7.567-1.249 14.724-4.363 19.753-8.594l3.056-2.572 1.696 5.266c5.724 17.774 18.186 33.204 36.976 45.783 6.242 4.179 19.559 16.96 24.1 23.13l3.419 4.647 8.24-.055c4.533-.03 10.941.532 14.241 1.25 3.3.717 10.05 1.34 15 1.382 7.574.066 9.713-.291 13.5-2.256 6.15-3.19 9.712-6.702 12.792-12.614 2.158-4.143 2.593-6.285 2.539-12.5-.132-15.078-7.76-27.499-23.023-37.491-5.048-3.305-12.02-7.573-15.493-9.484-8.934-4.916-22.356-18.607-26.985-27.525-10.817-20.845-10.826-40.375-.025-57.072 7.115-11 19.083-19.49 31.727-22.508 6.71-1.602 23.596-1.6 30.968.002 3.3.718 10.874 2.829 16.832 4.691 5.957 1.863 12.065 3.386 13.573 3.386 1.509 0 6.501-1.125 11.095-2.5 9.514-2.847 14.66-3.108 21.386-1.084 10.569 3.18 15.816 9.924 18.638 23.955 2.739 13.614 5.055 16.63 12.776 16.63 8.19 0 12.109-6.91 10.383-18.31l-.933-6.166 3.394 3.926c8.018 9.276 11.01 21.517 6.678 27.32-3.065 4.105-6.65 6.33-11.183 6.938-2.303.309-4.436.964-4.74 1.456-.305.492.809 2.447 2.474 4.344 4.084 4.65 4.788 9.226 2.757 17.91-3.374 14.429-1.686 21.342 6.044 24.761 5.236 2.317 9.687 1.897 13.745-1.294 5.98-4.704 7.02-11.254 3.117-19.636-1.344-2.887-2.217-5.25-1.94-5.25 1.44 0 6.24 3.175 8.674 5.736 3.43 3.61 4.737 7.984 4.708 15.758-.04 11.302-5.073 17.768-16.361 21.027-7.126 2.058-15.843 1.468-24.348-1.647-4.394-1.61-7.318-3.693-12.27-8.744-7.606-7.756-11.415-14.812-13.568-25.138-.854-4.097-2.021-7.738-2.593-8.092-.572-.353-3.132.004-5.69.795-2.556.79-6.53 1.242-8.829 1.002-4.55-.474-6.317.575-6.323 3.753-.01 3.504-3.727 8.37-8.207 10.732-5.38 2.838-15.758 2.996-23.671.362-5.97-1.988-15.06-9.827-15.201-13.11a77.74 77.74 0 0 0-.336-4.226c-.366-3.316.791-3.507 3.524-.582 3.499 3.746 7.213 5.374 12.257 5.374 3.753 0 4.87-.487 7.05-3.076 1.795-2.134 2.588-4.246 2.588-6.894 0-4.085-.763-5.096-10.764-14.256-2.838-2.6-5.898-6.154-6.8-7.898-2.16-4.178-2.17-11.148-.025-17.608.954-2.872 1.459-5.669 1.122-6.214-1.436-2.324-17.036-6.27-25.033-6.332-10.529-.082-16.698 2.526-23.45 9.914-13.31 14.563-11.608 32.196 4.786 49.574 7.4 7.845 13.79 12.641 29.164 21.896 23.258 14 34.273 31.25 35.711 55.93.824 14.128-2.578 24.52-11.032 33.702-5.694 6.185-12.633 10.678-21.463 13.898-4.075 1.487-7.642 3.31-7.927 4.053-.285.743.433 3.563 1.596 6.267 2.446 5.686 2.763 13.598.734 18.327-1.93 4.498-7.412 9.345-11.954 10.57-3.384.912-3.761.84-3.207-.605 3.124-8.14 3.648-11.14 2.616-14.972-1.037-3.851-5.052-9.276-6.866-9.276-.488 0-1.389 1.102-2.002 2.448-2.396 5.258-9.206 7.133-9.206 2.534 0-3.29-2.612-7.484-5.472-8.787-3.432-1.563-10.02-1.531-11.263.055-.643.821-.555 4.684.256 11.25.68 5.5 1.31 17.163 1.401 25.918.092 8.755.368 16.243.613 16.64.246.397 4.163.498 8.706.224 4.542-.274 10.705-.046 13.695.507 6.67 1.234 7.465.95 10.199-3.638 11.453-19.22 34.143-22.173 45.88-5.972 1.65 2.278 2.836 4.304 2.637 4.502-.199.2-2.79-.768-5.757-2.15-9.715-4.522-17.233-2.58-21.431 5.539-3.97 7.678 1.72 15.93 10.986 15.93 3.101 0 3.55.31 3.55 2.453 0 1.349-1.789 5.849-3.975 10-3.083 5.853-3.621 7.547-2.4 7.547 1.698 0 7.335-5.244 9.126-8.491 1.447-2.624 2.046-1.853 3.164 4.068 1.334 7.07-.912 17.553-4.645 21.678-2.715 3-.415 3.259 2.672.3l2.922-2.798.687 3.665c.797 4.248-1.501 11.318-4.587 14.111-2.736 2.476-2.503 3.152 1.853 5.374 4.272 2.18 5.625 3.573 6.619 6.815.62 2.025.361 2.21-2.92 2.087-5.288-.2-8.138 2.468-16.038 15.006-3.862 6.13-9.037 13.2-11.5 15.71-8.288 8.451-23.996 17.997-40.951 24.886-4.346 1.766-8.235 2.59-12.232 2.59-3.223 0-7.475.674-9.45 1.5-4.017 1.678-8.208 1.79-13.206.352zm-138.04-79.818c-8.077-2.735-16.084-8.1-24.814-16.628-6.982-6.82-8.286-8.6-8.286-11.306 0-2.856.51-3.439 4.592-5.244 3.778-1.671 5.68-1.905 10.726-1.32 5.812.675 6.056.619 4.658-1.074-.812-.983-3.392-2.637-5.734-3.675-3.874-1.718-4.982-1.777-12.273-.661-8.867 1.357-9.92.976-10.259-3.716l-.21-2.91 11.5-.308c14.804-.397 17.804.507 23.222 6.995 7.339 8.788 8.698 9.813 13.024 9.813 6.854 0 12.71-8.033 12.758-17.5.022-4.337-5.152-20.343-6.777-20.967-.758-.29-3.482.708-6.053 2.219-4.049 2.38-5.747 2.748-12.699 2.748-5.8 0-9.222-.54-12.344-1.945-3.931-1.77-4.16-2.061-2.534-3.25.982-.718 2.847-1.305 4.144-1.305 3.209 0 8.478-2.841 7.992-4.309-.217-.655-2.876-1.462-5.908-1.793-6.89-.752-11.036-3.15-13.73-7.944-3.83-6.814-2.574-8.306 4.503-5.349 8.848 3.697 16.625-.24 20.4-10.327 2.638-7.052 2.546-7.893-.993-9.127-2.73-.951-2.907-1.279-1.991-3.687 1.832-4.818 9.669-15.895 14.613-20.655 6.124-5.894 14.695-11.063 23.248-14.02 5.875-2.03 8.516-2.29 23.317-2.29h16.691l3.648 3.5c7.329 7.033 11.186 18.952 9.975 30.823-.661 6.477-1.855 10.172-3.291 10.184-4.222.034-12.914 2.355-15.372 4.105-6.612 4.709-9.42 16.423-7.463 31.139.928 6.984 2.379 7.368 7.81 2.065 2.075-2.027 4.086-3.373 4.467-2.991.382.381.895 5.562 1.14 11.511.341 8.283.046 12.194-1.261 16.69-2.856 9.824-7.376 17.522-14.432 24.578-10.076 10.075-22.266 15.383-41.871 18.231-8.268 1.202-9.792 1.17-14.132-.3zM506.25 288.873c-2.04-.824-4.468-10.985-4.096-17.139.446-7.371-.983-7.677-8.751-1.875-9.288 6.937-11.962 7.992-21.46 8.47-7.262.366-9.34.092-13.779-1.818-13.413-5.77-21.031-23.513-14.508-33.79 2.288-3.604 3.669-2.118 3.759 4.046.097 6.69 2.327 10.332 8.076 13.185 3.373 1.674 4.539 1.778 9.142.812 6.518-1.367 9.987-3.871 15.886-11.468 2.797-3.6 5.997-6.5 8.187-7.414l3.596-1.503-5.082-2.902c-7.513-4.291-9.409-7.925-7.617-14.604l.58-2.16 5.156 2.4c9.031 4.205 15.095 3.02 25.83-5.05 5.648-4.246 18.855-9.53 23.82-9.53 1.039 0 2.167-.45 2.507-1 .382-.617-1.411-1.008-4.69-1.021-5.06-.021-12.856-2.626-14.156-4.73-.347-.561 2.494-1.22 6.845-1.589 4.092-.346 11.616-1.563 16.72-2.705 17.748-3.971 32.14-3.195 45.566 2.455 11.054 4.653 23.76 4.42 27.437-.505 2.424-3.246 2.548-9.793.26-13.667-4.648-7.867-17.609-9.209-25.425-2.632l-3.034 2.553-5.55-2.715c-6.875-3.364-8.473-5.57-8.473-11.697 0-6.028 1.048-6.497 9.435-4.226 7.974 2.158 21.4 1.703 26.36-.893 4.875-2.552 7.197-7.036 7.201-13.91.008-12.353-4.567-16.719-17.496-16.695-4.4.008-11.756.679-16.347 1.49-15.494 2.74-21.914-1.587-23.576-15.893-.4-3.443-1.304-5.564-3.072-7.202-4.537-4.205-2.805-6.768 6.995-10.355 6.466-2.367 11.993-6.904 12.923-10.61.318-1.268 1.33-2.451 2.25-2.629 2.393-.463 51.218 3.734 51.949 4.465.335.335.107 2.05-.506 3.81-1.293 3.707-1.48 8.902-.321 8.902.437 0 2.48-2.21 4.54-4.913 4.236-5.553 9.041-9.51 14.133-11.638 9.967-4.165 22.532 1.887 22.532 10.851 0 4.956-8.852 13.94-19 19.284l-3.5 1.843 7.472.782c9.466.99 11.365 2.707 13.583 12.29 2.8 12.1 3.86 14.756 6.738 16.887 2.74 2.03 2.88 2.034 7.5.277 2.589-.985 5.382-1.875 6.207-1.977 2.149-.267 2.411 3.619.494 7.325-2.002 3.872-6.761 5.989-13.462 5.989-2.767 0-5.057.112-5.088.25-.858 3.804-.852 17.873.009 22.02 1.58 7.61 4.867 11.098 9.843 10.444 2.038-.268 4.697-.81 5.91-1.205 1.782-.581 2.318-.264 2.8 1.654.885 3.527-1.617 9.858-4.837 12.241-2.3 1.702-4.077 2.055-9.461 1.879-7.5-.246-8.159.253-8.214 6.217-.043 4.646-2.773 11.158-6.853 16.352-6.908 8.792-8.213 16.802-3.504 21.511 3.193 3.193 6.485 3.343 11.078.505 3.058-1.89 3.62-1.963 4.941-.641 2.25 2.25 3.301 8.345 2.156 12.493-3.619 13.106-23.185 14.752-31.349 2.638-1.147-1.702-2.69-5.74-3.43-8.976l-1.345-5.882-1.182 4.5c-.65 2.475-1.94 5.96-2.866 7.743-1.918 3.693-14.887 12.76-17.06 11.926-.763-.293-2.83-3.464-4.594-7.046-2.431-4.939-3.113-7.494-2.82-10.568.213-2.23.227-4.055.033-4.055-.195 0-3.647 3.487-7.67 7.75-4.023 4.262-8.66 8.531-10.303 9.487-2.892 1.68-3.079 1.666-5.729-.418-3.896-3.065-5.497-7.689-5.497-15.878v-7.123l-4.25 6.313c-2.337 3.472-6.725 8.25-9.75 10.617-8.773 6.866-11.056 9.28-11.667 12.338-.908 4.538-2.914 5.608-6.129 3.266-4.543-3.31-7.204-9.807-7.204-17.596 0-4.966-.385-6.967-1.42-7.364-2.557-.981-6.583 2.763-10.748 9.997-4.863 8.445-8.751 12.85-14.778 16.74-4.31 2.784-6.202 3.259-8.8 2.21zm138.76-173.915c13.691-7.195 18.145-13.309 12.425-17.057-2.366-1.55-2.82-1.556-5.928-.073-2.123 1.012-4.363 3.378-6.064 6.405a516.885 516.885 0 0 1-5.53 9.55c-1.558 2.613-2.58 4.75-2.27 4.75.309 0 3.624-1.608 7.367-3.575zm-43.447-.518c8.995-1.659 9.192-2.052 3.116-6.236-2.963-2.041-6.603-5.075-8.088-6.741-3.116-3.498-5.699-3.302-9.344.707-3.197 3.517-3.024 8.61.385 11.291 2.993 2.355 5.51 2.532 13.931.979zM482.08 213.63c-5.728-2.323-7.69-4.877-9.128-11.877-1.798-8.76-5.68-20.456-9.495-28.601-1.896-4.048-4.299-11.595-5.34-16.772-1.042-5.177-3.52-13.341-5.507-18.141-4.275-10.327-4.701-17.23-1.618-26.19 2.665-7.745 3.52-8.694 6.58-7.3 2.406 1.097 8.425 9.399 8.425 11.622 0 1.736 2.694 1.403 3.393-.419.334-.87.607-3.69.607-6.268 0-5.742-3.32-11.125-8.33-13.502-4.11-1.95-5.17-5.075-3.646-10.738 1.365-5.067 4.13-7.944 6.932-7.211 1.158.302 4.28 2.506 6.939 4.896 8.848 7.955 11.136 17.625 10.318 43.615-.493 15.663.473 21.325 5.158 30.247 4.595 8.75 19.098 23.07 29.426 29.058 9.466 5.487 9.31 6.446-1.047 6.47l-6.75.015v5.288c0 6.915-3.269 13.42-7.984 15.888-4.466 2.338-13.062 2.302-18.933-.08zm43.272-44.543c-15.292-6.654-19.338-26.757-7.206-35.815 2.895-2.161 9.484-3.298 13.41-2.313 2.673.671 2.67.678-1.869 3.556-6.857 4.349-8.227 8.403-5.25 15.529 3.751 8.978 13.856 9.86 33.262 2.901 7.04-2.524 15.273-5.274 18.298-6.11 11.746-3.252 35.048 1.02 35.835 6.568.514 3.625-1.024 4.368-5.322 2.572-6.382-2.667-14.958-3.63-21.6-2.426-3.276.595-11.234 3.568-17.685 6.608-16.355 7.709-24.744 10.385-32.404 10.338-3.478-.022-7.739-.655-9.469-1.408zm98.645-82.603c-3.025-.44-12.925-1.343-22-2.007-9.075-.663-17.175-1.337-18-1.498-.825-.16-2.433-.327-3.573-.369-1.405-.052-3.624-2.346-6.879-7.109-2.643-3.867-7.447-9.423-10.676-12.345-3.23-2.923-5.872-5.608-5.872-5.968 0-1.279 16.653-.63 22.032.858 11.345 3.139 11.266 3.147 14.355-1.52 4.245-6.416 15.52-16.992 18.113-16.992 2.83 0 14.257 11.023 17.937 17.302 2.86 4.881 5.203 6.264 8.719 5.148 3.111-.987 19.914-.766 22.742.3l2.398.904-3.439 2.125c-4.021 2.485-10.343 8.858-15.091 15.214-5.26 7.04-7.975 7.818-20.766 5.957z"/>
</svg>
