<svg id="facebook" xmlns="http://www.w3.org/2000/svg" viewBox="0 0 400 400">
  <path fill-rule="evenodd" d="M174.609 1.194C43.993 18.212-35.173 154.23 14.565 276.172c29.659 72.713 103.839 123.808 179.771 123.826l9.57.002V243.75h-42.968v-49.219h42.968l.005-21.679c.009-42.595 6.621-59.182 28.978-72.696 12.74-7.701 47.807-11.026 70.797-6.713l2.564.481v43.428l-17.773.329c-23.091.428-26.841 1.7-31.202 10.58l-2.197 4.473-.261 20.899-.262 20.898h49.78l-3.14 24.61-3.139 24.609h-43.368v149.135l4.101-1.205c91.177-26.774 151.75-120.118 140.101-215.899C385.512 65.783 284.196-13.085 174.609 1.194"/>
</svg>
