<svg id="instagram" xmlns="http://www.w3.org/2000/svg" viewBox="0 0 400 400">
  <path fill-rule="evenodd" d="M174.609 1.194C8.75 22.804-59.514 227.069 60.256 343.37c112.899 109.628 302.556 52.438 335.731-101.238C424.984 107.814 310.724-16.541 174.609 1.194m77.432 85.558c36.725 3.204 57.685 24.135 61.295 61.207 1.616 16.59.522 106.471-1.398 114.977-5.652 25.026-21.538 41.965-44.981 47.961-18.781 4.803-114.847 4.821-133.914.025-26.678-6.71-43.163-27.356-46.307-57.995-1.076-10.482-1.076-95.372 0-105.854 3.376-32.899 20.926-52.976 51.818-59.279 10.786-2.201 91.694-2.944 113.487-1.042m-100.088 19.533c-30.248 2.066-43.433 15.532-45.713 46.689-.941 12.855-.941 81.197 0 94.052 2.377 32.483 15.046 44.531 49.229 46.815 16.611 1.11 93.55.483 100.73-.821 21.466-3.898 32.923-15.355 36.821-36.821 1.304-7.18 1.931-84.119.821-100.73-2.3-34.426-14.335-46.965-47.255-49.237-12.086-.834-82.214-.795-94.633.053m115.337 20.734c5.015 2.561 8.348 9.439 6.945 14.331-3.083 10.749-14.565 14.153-22.152 6.567-10.556-10.557 1.91-27.689 15.207-20.898m-51.274 16.759c43.209 13.36 56.662 65.637 25.031 97.269-36.87 36.869-99.228 11.074-99.228-41.047 0-38.658 37.964-67.425 74.197-56.222m-28.305 19.53c-33.616 10.933-34.902 59.559-1.923 72.77 10.939 4.382 27.599 2.125 37.287-5.053 23.883-17.694 18.807-56.265-8.823-67.042-6.523-2.544-19.759-2.881-26.541-.675"/>
</svg>
