<svg id="wildlogo" xmlns="http://www.w3.org/2000/svg" data-name="Layer 1" viewBox="0 0 1000 1000">
  <path d="m80.37 504.92.16-.5c.7-2.12 2.5-4.12 4.81-5.3.45-.23.82-.43.84-.44.03-.02-2.06-15.7-2.31-17.39-.47-3.13-2.71-7.69-5.6-11.41-.42-.54-.78-.98-.8-.98s-.03 8.11-.03 18.01v18.01h2.94Zm17.47 14.05c-.32-.13-.87-.3-1.2-.37l-.62-.13-.18.58c-.39 1.28-.67 3.2-.68 4.66v.74l.36.02c1.23.05 6.05.03 6.14-.03.08-.05.06-.28-.09-.91-.53-2.17-1.86-3.81-3.73-4.56Zm12.55-5.1.31-.19-.56-.84c-1.8-2.7-3.58-6.43-5.11-10.75-.3-.84-.55-1.54-.57-1.55-.02-.02-.13.26-.24.62-1.42 4.35-3.76 9.33-5.59 11.92l-.42.59.22.14c.12.08 1.53.93 3.13 1.9l2.91 1.76 2.8-1.71c1.54-.94 2.94-1.79 3.12-1.89Zm-20.13 3.34c-3.93 0-8.52-3.17-9.68-6.7l-.21-.64h-2.94v14.68H89.5l.06-1.17c.08-1.51.38-3.49.73-4.91.35-1.37.35-1.27-.04-1.27Zm5.83 12.16c-.18.18.68 3.06 1.35 4.47.95 2.01 2.77 4.48 3.92 5.3l.28.2v-10.02h-2.75c-1.51 0-2.77.02-2.8.05Zm32.44-19.5-.16.55c-.99 3.45-5.77 6.79-9.71 6.79-.41 0-.41-.09-.05 1.27.37 1.4.65 3.28.73 4.85l.06 1.22h12.07v-14.68h-2.94Zm.79-38.17c-2.55 3.76-3.98 7.17-4.42 10.59-.25 1.93-1.97 14.78-2.1 15.66-.06.39-.09.71-.07.72.01 0 .35.18.74.37 2.32 1.16 4.2 3.22 4.9 5.37l.16.5h2.94V486.9c0-9.91-.01-18.01-.03-18.01-.08 0-1.4 1.75-2.12 2.81Zm-16.16 47.61c-.25-.91-.19-.87-1.08-.65-2.6.62-4.63 2.94-4.83 5.51l-.03.33h2.48c1.36.02 2.84 0 3.28-.02l.8-.05-.06-1.35c-.06-1.43-.23-2.61-.56-3.78Zm-3.15 10h-2.75v10.02l.28-.2c1.04-.74 2.77-3.02 3.71-4.87.84-1.66 1.79-4.66 1.56-4.9-.03-.03-1.29-.05-2.8-.05Zm623.78-45.62c-14.34-6.74 4.18-12.54-12.04-30.6-13.44-24.49-36.32 2.15-47.36-18.81-15.46-11.43-41.72-19.63-58.95-27.62-8.96-1.43-14.57-21.73-16.7-25.48-2.15-2.42-11.48-17.34-13.59-20.09 3.56-3.13 5.68-6.75 4.1-11.96-.22-6.35-5.6-7.67-7.96-12.7-2.69-10.46-11.54-13.97-21.21-9.47 3.55-48.34-13.13-90.91-58.36-113.96-42.87-16.91-105.24 20-145.78-6.49v6.88c-.29 16.77 5.47 28.89 16.14 41.09-9.32 1.65-27.6 5.67-33.48 7.5-7.51 6.42-24.91 18.01-32.22 26.58-1.87 3.23-9.82 14.4-13.75 17.43-.47 3.21-14.55 14.15-16.39 12.87-10.02 7.49-35.6 9.34-50.74 7.17-9.58-1.42-9.47-1.52-5.3 4.61 20.82 36.16 75.62 56.6 105.92 51.62 13.63-1.4 24.47-4.19 39.99-11.51 12.78-5.99 12.38-5.86 10.88-3.58-5.44 8.3-20.7 20-24.3 18.62-.51-.2-1.03-.12-1.15.17.71.87-24.73 7-15.13 7.51 19.48 7.13 55.69 10.05 72.78 4.97 14.58-3.68 28.47-7.77 41.72-15.88 14.52-8.52 42.11-33.84 60.89-33.51-16.04 7.14-17.34 20-5.35 27.07 2.29 12.65 9.06 14.77 18.49 15.34 5.35 8.73 26.23 38.83 25.86 45.51.67 29.33-7.51 49.4-3.14 74.06 5.55 10.38-15.63 24.58-12.06 34.8-2.49 12.52-6.47 29.7-9.43 40.73-3.71 10.53-20.48 21.84-32.25 30.17-16.04 11.64-33.89 23.78-52.65 37.95-4.96 1.22-9.79 7.78-13.24 9.74-10.43 6.7-26.8 18.8-36.62 26.38 2.57 18.74 26.71-11.44 35.9-14.58 7.19-4.24 10.16-10.45 18.22-12.82-.46.76 15.08-12.07 16.48-11.97 10.18-9.46 27.38-21.16 39.98-28.43 8.21-6.16 15.01-13.66 23.84-18.3 5.63-3.52 5.55-8.42 9.07-14.68 11.34-25.72.75-69.43 39.8-69.75 11.97-1.27 25.77-8.42 36.87-4.17 16.63 16.6 64.59 6.82 58.71 17.88-4.23 20.76-33.43 24.71-51.89 20.02-8.7 1.14-15.7-14.05-24.93-14.77-7.23-1.95 11.26 19.38 3.73 19.19-7.27 3.96-26.42-4.79-31.78-1.05.15 2.57 12.05 9.79 14.91 11.34 6.83 1.21 5.1 7.51 6.5 13.42 1.67 9.96-1.71 37.47-4.1 35.97 1.43 2.31-7.08 19.71-10.2 20.86-2.04.75-1.78 2.04 1.03 5.11 9.75 9.19 21.8-29.87 22.8-38.91 11.62 19.41 18.04 34.78 28 52.08.24 4.47 17.95 25.37 11.32 25.47-11.14 3.81-22.2 6.07-33.29 7.57-13.95-.25-23.13-6.35-35.53-13.65-9.79-9.82-15.68 1.9-9.91 5.17 4.29 2.78 10.68 5.94 14.75 8.95-7.38 9.98-22.04 23.38-32.41 32.35-20.07 18.31-36.26 33.28-57.55 51.53-15.61 14.61-14.89 13.45-10.82 17.22 3 2.78 4.79 2.18 10.41-3.48 11.87-9.94 25.65-25.43 39.72-34.52 9.86-8.31 18.24-19.34 28.93-28.43 49.52-41.09 10.6-27.41 56.98-26.57 3.63-1.96 25.07-3.56 26.96-5.79 2.61-.8 10.23-4.88 9.31-.44 13.92 24.62 35.2 18.6 62.43 6.18 21.37-9.11 42.97-23.66 61.77-35.47 28.39-15.57 10.3-41.49-2.49-62.2 10.22-14.6 24.4-42.91 4.93-56.35-2.72-6.61.65-19.01-7.42-24.47-4.12-5.75-9.65-6.9-15.35-10.97 1.63-9.15-4.64-20.81-13.3-25.67Zm-5.21 7.9c6.56 4.78 5.56 3.58 8.14 10.39 8.89 10.07-10.45 23.84-19.26 23.91-18.34.44-16.85-31.78-1.59-32.91 5.43-2.87 7.08-7.18 12.71-1.39Zm-37.95-36.12c-3.46 1.91-5.75-5.46 2.9-4.09 5.99.44 5.96-3.13 11.57 0 27.81 10.65 9.01 44.26-16.86 39.86-10.82-4.49-1.67-27.56 8.24-29.21 3.18-.58-2.66-11.43-5.86-6.57ZM422.41 384.7c-14.84 5.67-41.72 7.98-57.25 6.57 13.65-6.49 22.53-24.48 28.7-35.14 6.59-4.62-4.06-13.56-9.96-4.94-1 2.13-19.5 9.74-26.04 12.91-19.66 8.97-46.28 11.9-62.65 7.21-21.57-5.75-43.33-14.92-57.27-33.89 76.01.99 70.5-77.54 148.12-73.46 6.02 1.95 5.72-7.74 3.24-8.56-2.23-.31-1.34-1.29-4.54-2.34-11.69-8.12-16.33-19.09-18.96-31.59 37.58 12.03 84.3-7.33 122.55-2.4 40.53 9.87 68.81 60.04 60.95 101.31-9.86-49.76-35.8-81.59-102.08-77.41-30.83-1.64-25.44 2.28-39.73-6.97-12.42 10.66 3.13 25.28 9.97 33.67-68.62 12.2-60.99 22.98-113.42 69.14-52.75 25.04 40.02 15.11 57.56 9.94 19.4-3.25 41.11-16.79 55.24-29.82 1.44 4.04.45 27.96-1.26 33.99-3.44 5.71-.77 10.29 8.2 7.97 13.42-5.74 18.37-3.77 32.23-17.03 15.25-16.81 34.22-22.8 52.71-9.78.57 2.38 19.87 9.6 6.79 6.81-34.93-5.26-60.8 39.43-93.1 43.81Zm-3.58-77.43c-2.13-1.14-3.93-.01-11.82 7.37-9.32 8.71-13.43 11.91-16.51 12.84-23.62 11.94-50.03 17.94-78.23 17.46 16.1-12.71 30.16-32.12 45.66-44.84 5.86-6.02 18.85-9.46 24.3-11.44 12.36-6.89 28.96-7.44 45.58-8.9l7.69.41c1.9-3.98 3.76-9.48-.55-10.85-7.28-3.04-27.86-21.47-14.96-17.85 41.08 2.61 77.36-6.58 102.75 28.42 7.43 3.86 25.86 53.36 15.49 57.8-6.66 6.73-22.68-14.31-33.92-16.04-36.76-16.33-45.01 16.92-78.95 28.97 3.06-11.25 4.79-34.52-6.51-43.35Zm95.27 59.09c-15.93 3.44-2.68-8.95 8.7-11.93 16.34-3.95 43.56-27.04 48.15-17.26 1.04 5.14-8.66 4.06-10.93 6.77-9.86 5.16-18.3 11.08-26.99 12.89.48.77-19.07 9.02-18.92 9.52Zm3.02 14.16c-.46-1.93-2.41-4.48.99-5.11 9.75-5.46 22.89-10.32 32.39-15.16 9.39-3.27 21.23-15.17 29.99-10.83 1.55 6.46-16.49 10.08-19.86 12.16-3.2 4.52-23.76 11.32-32.14 16.09-7.72 4.27-11.36 5.19-11.36 2.86Zm232.19 284.47c-24.61 14.53-48.34 27.87-75.56 35.61-9.96 2.77-19.2-6.55-21.61-13.81-4.97-6.64-17.17-26.82-18.01-33.35-1.75-1.11-19.21-36.16-21.72-39.06-7.89-14.06-16.92-28.62-18.97-45.29 1.08-2.54 9.03-1.13 12.23-5.21 15.11-2.97 32.74 5.41 48.86-2.75 20.92-2.95 33.97-32.95 17.97-41.28-12.55-1.92-33.64 1.68-46.55-6.62-19.03-12.77-39.46-3.36-61.11-1.02-18.63 6.24-5.06-43.81-5.88-55.02 1.64-3.05 1.13-29.23-.56-29.23-3.28-3.55-4.95-6.71-7.49-11.82-4.25-8.02-12.81-20.92-16.41-28.68-2.76-1.63 3.98-3.1 3.93-4.36 0-.37.32-.47.71-.23 1 .64.42-1.35 1.42-.71.9 0 .77-1.15 2.66-1.07 8.13.34 30.95-21.41 36.47-12.25 9.65 15.73 14.35 23.92 22.7 39.59 5.45 8.35 13.13 5.18 18.78 11.53 25.1 11 44.28 10.56 56.77 37.12.77 1.56 4.09 6.87.85 6.63-.57-.81-.16 2.11-1.6 3.97-9.1 14.34 2.05 35.2 18.14 33.48-.38 10.75-1.68 17.64 5.2 26.39.57 1.57 6.24 5.2 10.44 6.7 7.59 1.57-2.44 13.99 12.07 29.33 1.99 40.47-73.47 3.51-95.26 6.83-50.7-3.17-21.49 8.29-12.47 37.19 3.62 8.72 15.97 31.28 22.21 42.26 18.87 37.88 23.29 53.19 62.76 34.88 23.11-13.07 85.71-31.11 57.12-68-.9-3.55-5-5.87-4.88-9.87 6.21-3.04 8.38 3.65 11.99 10.68 16.87 24.76 6.82 34.2-15.2 47.45Zm-20.74-82.19c-.12 10.56 4.41 17.43 14.36 27.52 1.53 10 23.02 28.26 3.57 36.33-19.71 14.51-44.5 27.71-66.81 35.2-21.65 6.9-24.72-28.66-34.13-39.56-11.22-19.25-23.5-44.18-31.7-61.69 5.35-1.38 12-1.17 17.41-.31 32.09 2.01 67.03 25.29 97.3 2.51Zm37.41-29.04c13.51 11.79-6.37 47.82-20.01 45.13-1.22-1.17-3.95-3.4-5.53-4.66 0-8.1-.46-30.66 5.05-28.6 8.11 1.44 12.96-13.73 20.49-11.87Zm-15.62-31.56c19.76 12.7 5.46 31.24-11.45 36.05-9.94 6.94-23.55-19.89-10.51-25.15 7.29-2.09 15.18-18.47 21.96-10.9Z" class="cls-1"/>
  <path d="M723.04 606.54c0-4-4.77-6.16-7.35-3.32-5.13 6.45 6.67 12.02 7.35 3.32Zm-73.23-163.67c-13.51-5.39-27.93-12.35-42.28-18.01-9.79-4.09-11.53-12.83-16.87-20.41-2.41-3.13-12.48-28.18-17.45-27.1-11.94 4.94 2.71 14.83 4.26 21.07 7.18 10.49 11.15 25.74 19.88 31.57 12.02 3.91 33.01 14.92 49.24 20.8 1.77 3 6.88-9.4 3.21-7.92Zm36.7 194.71c-4.95 6.77 7.43 11.32 7.42 2.91 0-4.12-5.15-6.15-7.42-2.91Zm-40.46-38.8c-2.53 2.53-1.21 7.58 2.49 9.57 9.33 1.72 6.85-16.7-2.49-9.57ZM216.94 233.7c1.68-1.83 2.01-4.67.01-6.51l-.59-.54c-1.94-1.79-4.92-1.15-6.49.55l-7.42 8.07 7.07 6.5 7.42-8.07Zm-69.12 69.09.69.41c7.83 4.68 15.52 3.04 18.68-2.25l.53-.89c3.2-5.35.97-12.84-6.85-17.52l-.69-.41c-7.76-4.64-15.48-3.11-18.68 2.25l-.53.89c-3.16 5.29-.9 12.88 6.85 17.52Zm-8.1 40.14-.74-.3c-2.45-1-5.01.64-5.89 2.79l-4.13 10.15 8.89 3.62 4.13-10.15c.94-2.3.26-5.08-2.26-6.11ZM552.15 90.24l.08-.72c.26-2.39-1.32-4.09-4.1-4.4l-9.46-1.04-.99 8.99 9.14 1.01c2.62.29 5.07-1.45 5.33-3.84Zm47.14 34.95 1.01.27c6.03 1.61 12.62-2.59 14.97-11.4l.21-.77c2.34-8.73-1.26-15.74-7.28-17.35l-1.01-.27c-5.95-1.59-12.64 2.66-14.97 11.4l-.21.77c-2.36 8.81 1.33 15.76 7.28 17.35Zm-265.37 23.78-13.12-26.62-9.47 4.67c5.55 12.16 8.92 21.73 9.53 28.39l13.06-6.44Zm-96.65 44.36c3.98 5.01 8.63 6.63 11.89 4.05l.81-.65-13.57-17.11-.81.65c-3.13 2.49-2.69 7.55 1.13 12.37l.55.69Zm314.48-82.61.07-.64c.29-2.62-1.56-4.84-4.34-5.15l-10.97-1.21-1.02 9.22 11.29 1.24c2.54.28 4.72-1.17 4.97-3.48Zm-289.81 76.52c3.13-2.49 2.86-7.47-1.17-12.55l-.55-.69c-4.03-5.08-8.59-6.46-11.85-3.87l-.81.65 13.57 17.11.81-.65Zm610.03 139.07.57-.28c3.16-1.55 4.44-4.76 2.39-8.93l-2.68-5.46-12.36 6.06 2.43 4.96c2.11 4.31 6.33 5.27 9.63 3.65ZM707.94 172.66l.88.56c5.27 3.35 12.81 1.32 17.71-6.38l.43-.68c4.85-7.63 3.53-15.39-1.74-18.74l-.88-.56c-5.2-3.31-12.86-1.25-17.71 6.38l-.43.68c-4.89 7.7-3.46 15.43 1.74 18.74ZM365.57 857.51l-.96-.36c-5.7-2.16-12.7 1.36-15.87 9.72l-.28.74c-3.2 8.43-.26 15.64 5.44 17.8l.96.36c5.77 2.19 12.67-1.29 15.87-9.72l.28-.74c3.17-8.36.33-15.61-5.44-17.8Zm-119.78-70.62-3.23-2.8-18.05 20.79 3.23 2.8c5.97 5.19 13.08 4.24 18.12-1.56l.73-.84c5.4-6.21 5.18-13.21-.79-18.4Zm478.68 29.74c-1.92-2.81-5.21-3.15-9.39-.3l-5.04 3.43 7.08 10.4 4.9-3.34c4.32-2.94 4.8-6.72 2.8-9.66l-.36-.52Z" class="cls-1"/>
  <path d="M500 50C251.47 50 50 251.47 50 500s201.47 450 450 450 450-201.47 450-450S748.53 50 500 50Zm407.52 309.29-30.09 9.64.12.38 35.32 6.66 5.59 17.44-53.32 17.09-5.01-15.62 34.28-10.99-.12-.38-40.14-7.29-4.88-15.24 53.32-17.09 4.93 15.39Zm-19.59-47.13c5.81 11.85 2.54 23.35-7.8 28.42l-.65.32c-10.63 5.21-21.72.58-27.5-11.2l-2.92-5.96-14.37 7.04-7.29-14.87 50.28-24.66 10.25 20.9Zm-17.92-34-11.76 7.75-11.4-17.3-6.41 4.23 10.52 15.96-10.89 7.17-10.52-15.96-5.94 3.92 11.84 17.97-11.76 7.75-20.95-31.79 46.76-30.81 20.51 31.13Zm-27.57-40.9-10.72 9.13-9.02-10.6-31.92 27.17-10.79-12.67 31.92-27.17-9.08-10.66 10.72-9.13 28.88 33.93Zm-62.45-65.16-13.76 15.49 12.32 10.94 13.76-15.49 12.44 11.05-37.19 41.87-12.44-11.05 14.08-15.85-12.32-10.94-14.08 15.85-12.38-11 37.19-41.87 12.38 11Zm-48.17-37.16 1.01.64c14.04 8.93 17.41 25.86 8.65 39.63l-.6.95c-8.76 13.77-25.51 17.91-39.55 8.98l-1.01-.64c-13.91-8.84-17.19-26.19-8.57-39.76l.43-.67c8.84-13.91 25.53-18.09 39.64-9.12Zm-87.17-12.04 11.72-24.91 37.7 16.42-22.36 51.34-15.18-6.61 16.74-38.43-8.29-3.61-4.93 10.51c-7.69 16.46-14.52 28.14-29.41 21.66-2.42-1.05-4.54-2.41-6.03-4.19l5.4-12.4c1.05.98 2.06 1.68 3.01 2.1 4.77 2.08 8.15-4.48 11.62-11.87Zm-69.18-19.49.21-.77c4.26-15.92 18.92-24.92 35.08-20.6l1.16.31c16.08 4.3 24.37 19.44 20.15 35.2l-.29 1.08c-4.22 15.77-18.96 24.74-35.03 20.44l-1.16-.31c-15.92-4.26-24.26-19.82-20.11-35.36Zm-50.84-34.39 26 2.86c11.21 1.23 18.53 7.83 17.67 15.71l-.09.79c-.54 4.93-3.16 8.26-8.99 10.76 6.18 3.09 9.01 8.8 8.35 14.84l-.11.95c-.99 8.99-9.36 14.1-20.97 12.82l-27.99-3.08 6.13-55.66ZM845 500c0 190.54-154.46 345-345 345S155 690.54 155 500s154.46-345 345-345 345 154.46 345 345ZM488.99 68.96l2.52 55.94-16.54.75-2.52-55.94 16.54-.75Zm-59.44 5.72 3.34 22.07.87-.13 10.89-24.23 17.88-2.71L447.56 98l23.99 26.95-18.75 2.84-17.82-22.55-.79.12 3.74 24.68-16.45 2.49-8.39-55.37 16.45-2.49Zm-66.63 16.57 9.38 30.17.38-.12 6.96-35.26 17.49-5.44 16.63 53.47-15.66 4.87-10.69-34.38-.38.12-7.64 40.08-15.28 4.75-16.63-53.47 15.43-4.8Zm-33.38 12.26 18.88 38.32 5.67-2.79 10.64 21.6-13.99 6.9-4.77-9.69-23.18 11.42 4.77 9.69-13.99 6.9-10.64-21.6 4.74-2.33c-.5-6.44-5.62-17.92-13.89-34.71l-2.4-4.88 38.18-18.81Zm-104.1 63.57 12.41-9.84 2.49 3.13.44-.35c9.78-7.75 23.25-6.6 31.85 4.25l.5.63c8.65 10.91 6.71 24.29-3.07 32.05l-.44.35 3.28 4.14-12.41 9.84-3.28-4.14-.38.3c-9.78 7.75-23.32 6.65-31.96-4.26l-.5-.63c-8.6-10.84-6.66-24.23 3.18-32.03l.38-.3-2.48-3.13Zm-28.34 25.43 10.36 9.53-18.52 20.14 4.95 4.55 8.4-9.13c7.91-8.6 18.06-9.59 25.65-2.6l.59.54c7.59 6.99 7.14 17.76-1.04 26.66l-18.9 20.55-41.21-37.92 29.74-32.32Zm-68.25 85.6.62-1.03c8.54-14.28 25.37-18.1 39.38-9.72l.96.58c14 8.38 18.59 25.01 10.05 39.29l-.62 1.03c-8.46 14.14-25.71 17.89-39.51 9.64l-.69-.41c-14.14-8.46-18.77-25.03-10.19-39.38Zm-19.84 39.27 13.04 5.31-10.32 25.34 6.22 2.53 4.68-11.48c4.41-10.82 13.57-15.29 23.13-11.4l.74.3c9.56 3.89 12.89 14.15 8.34 25.34l-10.53 25.86-51.86-21.12 16.57-40.67Zm.16 227.27c-2.51 1.86-3.91 3.06-4.49 3.85-.23.32-.27.34-.32.17-.08-.26-1.95-2.03-2.82-2.68l-1.85-1.38c-4.43-3.3-7.99-8.67-9.24-13.96-.14-.6-.28-1.15-.3-1.22-.03-.09-1.94-.12-9.14-.12h-9.1v-70.9l.44.19c5.65 2.42 12.06 9.18 14.98 15.82 1.55 3.51 1.89 4.9 2.64 10.83.34 2.67.96 7.58 1.38 10.91.42 3.33.77 6.14.77 6.24 0 .17-.08.18-1.02.19-5.44.02-7.66 5.87-3.3 8.73 1.13.74 3.52 1.16 4.73.82.9-.25 4.24-6.36 5.87-10.75 2.74-7.37 3.21-12.56 2.55-28.07-.08-1.78-.21-4.87-.29-6.86-.36-8.43.23-11.07 3.2-14.53l.61-.7.51.56c1.16 1.28 2.21 3.13 2.79 4.91.75 2.29.8 3.83.43 12.45-.68 15.53-.63 19.73.29 24.68 1.16 6.26 4.9 15.15 7.63 18.09.89.96 4.5.12 6.06-1.4 3.14-3.07.12-8.28-4.61-7.96-.69.05-.74.04-.74-.14 0-.1.21-1.85.47-3.87.26-2.03.88-6.93 1.38-10.89.96-7.58 1.04-8.03 1.82-10.37 1.63-4.86 4.62-9.63 8.08-12.91 2.7-2.57 7.37-5.88 8.27-5.88.04 0 .08 15.93.08 35.41v35.41l-9.07.02-9.07.02-.22.97c-1.21 5.4-4.87 10.97-9.38 14.32Zm19.22 161.16 22.06-18.66-.3-.56-27.79 7.91-9.34-17.53 43.34-36.45 7.78 14.59-29.37 22.28.37.7 36.1-9.64 6.03 11.31-28.1 24.66.37.7 34.76-12.16 7.74 14.52-54.31 15.85-9.34-17.53Zm23.23 37.37 44.8-32.55 9.62 13.25-44.8 32.55-9.62-13.25Zm18.31 24.72 41.61-36.55 10.81 12.3-31.15 27.36 12.74 14.5-10.46 9.19-23.55-26.81Zm89.48 48.32-.88 1.02c-10.43 12.01-26.6 12.53-40.16.75l-15.35-13.33 36.31-41.81 15.35 13.33c13.5 11.72 15.41 27.74 4.73 40.04Zm23.09 48.76 12.25-56.55 15.14 8.42-10.54 39.31.69.38 27.89-29.66 15.07 8.38-41.57 40.25-18.95-10.53Zm104.39 16.17-.39 1.04c-5.72 15.09-21.11 22.45-36.5 16.62l-1.11-.42c-15.24-5.77-21.9-21.92-16.26-36.79l.28-.74c5.77-15.24 21.1-22.63 36.56-16.77l1.11.42c15.39 5.83 22.04 21.55 16.32 36.64Zm39.26 37.61-34.82-7.79 12.09-54.05 15.98 3.57-9.05 40.46 18.84 4.21-3.04 13.59Zm61.98-14.78c-1.31 14.58-12.28 21.69-26.54 20.41-15.13-1.36-23.8-10.96-22.55-24.83l3.05-33.88 16.39 1.48-3.01 33.41c-.52 5.75 3.32 8.96 7.5 9.33 4.02.36 8.29-2.11 8.81-7.87l3.01-33.41 16.39 1.48-3.05 33.88Zm50.51 19.09-21.94-34.18-.39.03 2.44 35.52-15.63 1.07-3.79-55.25 18.07-1.24 19.35 29.99.39-.03L535 867.8l15.63-1.07 3.79 55.25-15.79 1.08Zm59.33-9.76-16.08 3.49-8.78-40.52-13.53 2.93-2.95-13.61 43.07-9.34 2.95 13.61-13.45 2.92 8.79 40.51Zm26-6.71-18.41-52.23 34.77-12.26 4.63 13.13-19.33 6.81 2.53 7.16 17.83-6.29 4.29 12.16-17.83 6.29 2.34 6.64 20.07-7.08 4.63 13.13-35.52 12.52Zm49.44-18.48-24.72-49.55 32.99-16.46 6.22 12.46-18.33 9.15 3.39 6.79 16.92-8.44 5.76 11.54-16.92 8.44 3.14 6.3 19.04-9.5 6.22 12.46-33.69 16.81Zm72.43-41.64-17.5-10.1-4.25 2.89 10.24 15.04-13.54 9.22-31.17-45.77 20.27-13.8c10.72-7.3 21.09-6.13 27.33 3.02l.45.65c3.61 5.3 3.83 11.94 1 17.21l22.47 11.21-15.3 10.42Zm39.5-30.43c-7.12 6.4-14.68 9.7-22.63 10.58l-3.6-14.64c6.59-.61 13.03-3.85 16.91-7.35 2.65-2.38 3.08-4.26 2.02-5.44-1.43-1.59-4.66.15-8.86 2.34-8.81 4.52-19.42 9.29-27.63.17-7.73-8.58-4.63-19.57 2.72-26.19 6.76-6.09 13.42-9.21 21.39-10.42l3.36 14.97c-5.62.38-11.48 3.09-14.65 5.95-2.06 1.85-2.55 3.68-1.22 5.15 1.69 1.88 5-.24 9.5-2.69 9.69-5.32 19.57-8.89 27.09-.54 7.46 8.29 5.25 19.44-4.39 28.12Zm56.95-62.47-.05.06c-10.03 13.34-26.94 15.68-40.15 5.74l-.38-.29c-13.15-9.89-15.61-26.89-5.77-39.98l.05-.06c5.75-7.65 13.59-11.36 23.89-11.63l.38 14.64c-5.89-.07-9.43 1.22-12.05 4.7l-.05.06c-4.61 6.13-3.1 13.6 3.73 18.74l.38.29c6.64 4.99 14.3 4.42 18.72-1.46l.05-.06c2.76-3.67 3.37-8.16 1.7-13.18l14.12-3.64c2.96 8.96 1.34 18.23-4.56 26.07Zm19.23-29.88-48.4-26.91 17.61-31.67 12.17 6.77-9.65 17.35 7.81 4.34 8.88-15.97 11.27 6.27-8.88 15.97 17.15 9.53-7.96 14.31ZM905.81 508v26.94h-17.63V508H860.8v-16h27.38v-26.94h17.63V492h27.38v16h-27.38Z" class="cls-1"/>
</svg>
